<svg width="1280" height="958" viewBox="0 0 1280 958" fill="none" xmlns="http://www.w3.org/2000/svg">
<g clip-path="url(#clip0_34_286)">
<rect width="1280" height="958" fill="url(#paint0_linear_34_286)"/>
<path d="M-37.8695 970.427C8.91824 931.046 137.371 857.689 276.878 879.305C416.385 900.922 441.774 904.262 534.643 859.667C603.239 826.727 604.637 764.557 686.63 729.866C768.624 695.175 883.785 732.412 993.293 635.068C1094.42 543.762 1105.89 604.737 1192.24 561.598C1261.32 527.088 1303.77 476.518 1316.36 455.546L1297.94 1062.97C1297.86 1065.72 405.945 1049.28 -40.0004 1040.71L-37.8695 970.427Z" fill="#FFCE6A"/>
<g filter="url(#filter0_d_34_286)">
<rect x="77" y="56" width="1126" height="775" rx="20" fill="white"/>
</g>
<path d="M269.455 143.943H287.863V168C285.43 168.805 282.901 169.45 280.277 169.937C277.654 170.402 274.681 170.635 271.359 170.635C266.746 170.635 262.832 169.725 259.616 167.905C256.4 166.086 253.956 163.398 252.284 159.844C250.613 156.289 249.777 151.92 249.777 146.736C249.777 141.869 250.708 137.659 252.57 134.104C254.453 130.549 257.193 127.799 260.79 125.852C264.408 123.905 268.82 122.932 274.025 122.932C276.479 122.932 278.902 123.197 281.293 123.726C283.684 124.255 285.853 124.942 287.799 125.789L284.53 133.66C283.113 132.94 281.494 132.337 279.674 131.851C277.855 131.364 275.95 131.121 273.961 131.121C271.105 131.121 268.619 131.777 266.503 133.088C264.408 134.4 262.779 136.241 261.615 138.611C260.473 140.959 259.901 143.731 259.901 146.926C259.901 149.952 260.314 152.639 261.139 154.988C261.964 157.315 263.266 159.146 265.043 160.479C266.82 161.79 269.137 162.446 271.994 162.446C273.39 162.446 274.564 162.383 275.517 162.256C276.49 162.108 277.4 161.96 278.246 161.812V152.131H269.455V143.943ZM317.982 133.85C318.469 133.85 319.03 133.882 319.665 133.945C320.32 133.988 320.849 134.051 321.251 134.136L320.521 143.213C320.204 143.107 319.749 143.033 319.157 142.991C318.585 142.927 318.088 142.896 317.665 142.896C316.417 142.896 315.2 143.054 314.015 143.372C312.851 143.689 311.804 144.207 310.873 144.927C309.942 145.625 309.201 146.556 308.651 147.72C308.122 148.862 307.858 150.269 307.858 151.941V170H298.178V134.517H305.509L306.938 140.483H307.414C308.112 139.277 308.979 138.177 310.016 137.183C311.074 136.167 312.27 135.363 313.603 134.771C314.957 134.157 316.417 133.85 317.982 133.85ZM342.23 133.787C346.991 133.787 350.641 134.823 353.18 136.897C355.719 138.971 356.989 142.123 356.989 146.355V170H350.229L348.356 165.176H348.102C347.086 166.445 346.05 167.482 344.992 168.286C343.934 169.09 342.717 169.683 341.342 170.063C339.966 170.444 338.295 170.635 336.327 170.635C334.232 170.635 332.349 170.233 330.678 169.429C329.027 168.625 327.726 167.397 326.774 165.747C325.822 164.076 325.346 161.96 325.346 159.399C325.346 155.633 326.668 152.861 329.313 151.084C331.958 149.285 335.925 148.291 341.215 148.101L347.372 147.91V146.355C347.372 144.493 346.885 143.128 345.912 142.261C344.939 141.393 343.585 140.959 341.85 140.959C340.136 140.959 338.454 141.203 336.803 141.689C335.153 142.176 333.502 142.79 331.852 143.53L328.646 136.992C330.53 135.998 332.635 135.215 334.962 134.644C337.311 134.072 339.734 133.787 342.23 133.787ZM347.372 153.56L343.627 153.687C340.495 153.771 338.316 154.332 337.089 155.369C335.883 156.405 335.28 157.77 335.28 159.463C335.28 160.944 335.714 162.002 336.581 162.637C337.449 163.25 338.581 163.557 339.977 163.557C342.051 163.557 343.796 162.944 345.214 161.716C346.653 160.489 347.372 158.743 347.372 156.479V153.56ZM378.222 170.635C374.265 170.635 371.038 169.09 368.542 166.001C366.066 162.891 364.828 158.331 364.828 152.322C364.828 146.249 366.087 141.658 368.605 138.547C371.123 135.416 374.413 133.85 378.476 133.85C380.168 133.85 381.66 134.083 382.951 134.548C384.241 135.014 385.352 135.638 386.283 136.421C387.235 137.204 388.039 138.082 388.695 139.055H389.013C388.886 138.378 388.727 137.384 388.537 136.072C388.367 134.739 388.283 133.374 388.283 131.978V120.615H397.995V170H390.568L388.695 165.398H388.283C387.669 166.371 386.897 167.26 385.966 168.064C385.056 168.847 383.966 169.471 382.697 169.937C381.427 170.402 379.936 170.635 378.222 170.635ZM381.618 162.922C384.263 162.922 386.125 162.139 387.204 160.574C388.304 158.987 388.886 156.606 388.949 153.433V152.385C388.949 148.936 388.42 146.302 387.362 144.482C386.304 142.642 384.337 141.721 381.459 141.721C379.322 141.721 377.65 142.642 376.444 144.482C375.238 146.323 374.635 148.979 374.635 152.449C374.635 155.919 375.238 158.532 376.444 160.288C377.672 162.044 379.396 162.922 381.618 162.922ZM422.75 133.85C426.03 133.85 428.855 134.485 431.225 135.754C433.594 137.003 435.425 138.822 436.715 141.213C438.006 143.604 438.651 146.524 438.651 149.973V154.67H415.768C415.874 157.4 416.688 159.548 418.212 161.113C419.757 162.658 421.894 163.43 424.623 163.43C426.887 163.43 428.961 163.197 430.844 162.732C432.727 162.266 434.663 161.568 436.652 160.637V168.127C434.896 168.995 433.055 169.63 431.129 170.032C429.225 170.434 426.908 170.635 424.179 170.635C420.624 170.635 417.471 169.979 414.721 168.667C411.991 167.355 409.844 165.356 408.278 162.668C406.733 159.981 405.961 156.596 405.961 152.512C405.961 148.365 406.659 144.916 408.056 142.166C409.473 139.394 411.441 137.32 413.959 135.945C416.477 134.548 419.407 133.85 422.75 133.85ZM422.814 140.737C420.931 140.737 419.365 141.34 418.117 142.546C416.889 143.752 416.181 145.646 415.99 148.228H429.574C429.553 146.789 429.289 145.509 428.781 144.387C428.294 143.266 427.554 142.377 426.559 141.721C425.586 141.065 424.337 140.737 422.814 140.737ZM471.278 159.463C471.278 161.875 470.707 163.917 469.564 165.588C468.443 167.239 466.761 168.498 464.518 169.365C462.275 170.212 459.482 170.635 456.139 170.635C453.664 170.635 451.537 170.476 449.76 170.159C448.004 169.841 446.226 169.312 444.428 168.572V160.574C446.353 161.441 448.416 162.161 450.617 162.732C452.838 163.282 454.785 163.557 456.457 163.557C458.34 163.557 459.683 163.282 460.487 162.732C461.312 162.161 461.725 161.42 461.725 160.51C461.725 159.918 461.556 159.389 461.217 158.923C460.9 158.437 460.202 157.897 459.123 157.305C458.043 156.691 456.351 155.898 454.044 154.924C451.823 153.993 449.993 153.052 448.554 152.1C447.136 151.147 446.078 150.026 445.38 148.735C444.703 147.424 444.364 145.763 444.364 143.752C444.364 140.473 445.634 138.008 448.173 136.357C450.733 134.686 454.15 133.85 458.424 133.85C460.625 133.85 462.72 134.072 464.708 134.517C466.719 134.961 468.782 135.67 470.897 136.643L467.978 143.625C466.221 142.864 464.56 142.24 462.995 141.753C461.45 141.266 459.874 141.023 458.266 141.023C456.848 141.023 455.779 141.213 455.06 141.594C454.341 141.975 453.981 142.557 453.981 143.34C453.981 143.911 454.161 144.419 454.521 144.863C454.901 145.308 455.621 145.805 456.679 146.355C457.758 146.884 459.334 147.572 461.408 148.418C463.418 149.243 465.163 150.111 466.645 151.021C468.126 151.909 469.268 153.02 470.072 154.353C470.876 155.665 471.278 157.368 471.278 159.463Z" fill="#C084FC"/>
</g>
<defs>
<filter id="filter0_d_34_286" x="62" y="41" width="1156" height="805" filterUnits="userSpaceOnUse" color-interpolation-filters="sRGB">
<feFlood flood-opacity="0" result="BackgroundImageFix"/>
<feColorMatrix in="SourceAlpha" type="matrix" values="0 0 0 0 0 0 0 0 0 0 0 0 0 0 0 0 0 0 127 0" result="hardAlpha"/>
<feOffset/>
<feGaussianBlur stdDeviation="7.5"/>
<feComposite in2="hardAlpha" operator="out"/>
<feColorMatrix type="matrix" values="0 0 0 0 0 0 0 0 0 0 0 0 0 0 0 0 0 0 0.25 0"/>
<feBlend mode="normal" in2="BackgroundImageFix" result="effect1_dropShadow_34_286"/>
<feBlend mode="normal" in="SourceGraphic" in2="effect1_dropShadow_34_286" result="shape"/>
</filter>
<linearGradient id="paint0_linear_34_286" x1="640" y1="0" x2="640" y2="958" gradientUnits="userSpaceOnUse">
<stop stop-color="#ECDAFE"/>
<stop offset="1" stop-color="white"/>
</linearGradient>
<clipPath id="clip0_34_286">
<rect width="1280" height="958" fill="white"/>
</clipPath>
</defs>
</svg>
