<svg width="1280" height="832" viewBox="0 0 1280 832" fill="none" xmlns="http://www.w3.org/2000/svg">
<g clip-path="url(#clip0_34_286)">
<rect width="1280" height="832" fill="url(#paint0_linear_34_286)"/>
<path d="M-35.8695 824.427C10.9182 785.046 139.371 711.689 278.878 733.305C418.385 754.922 443.774 758.262 536.643 713.667C605.239 680.727 606.637 618.557 688.63 583.866C770.624 549.175 885.785 586.412 995.293 489.068C1096.42 397.762 1107.89 458.737 1194.24 415.598C1263.32 381.088 1305.77 330.518 1318.36 309.546L1299.94 916.973C1299.86 919.716 407.945 903.276 -38.0004 894.713L-35.8695 824.427Z" fill="#FFCE6A"/>
<g filter="url(#filter0_d_34_286)">
<rect x="77" y="111" width="1126" height="610" rx="20" fill="white"/>
</g>
</g>
<defs>
<filter id="filter0_d_34_286" x="62" y="96" width="1156" height="640" filterUnits="userSpaceOnUse" color-interpolation-filters="sRGB">
<feFlood flood-opacity="0" result="BackgroundImageFix"/>
<feColorMatrix in="SourceAlpha" type="matrix" values="0 0 0 0 0 0 0 0 0 0 0 0 0 0 0 0 0 0 127 0" result="hardAlpha"/>
<feOffset/>
<feGaussianBlur stdDeviation="7.5"/>
<feComposite in2="hardAlpha" operator="out"/>
<feColorMatrix type="matrix" values="0 0 0 0 0 0 0 0 0 0 0 0 0 0 0 0 0 0 0.25 0"/>
<feBlend mode="normal" in2="BackgroundImageFix" result="effect1_dropShadow_34_286"/>
<feBlend mode="normal" in="SourceGraphic" in2="effect1_dropShadow_34_286" result="shape"/>
</filter>
<linearGradient id="paint0_linear_34_286" x1="640" y1="0" x2="640" y2="832" gradientUnits="userSpaceOnUse">
<stop stop-color="#ECDAFE"/>
<stop offset="1" stop-color="white"/>
</linearGradient>
<clipPath id="clip0_34_286">
<rect width="1280" height="832" fill="white"/>
</clipPath>
</defs>
</svg>
