<svg width="1280" height="832" viewBox="0 0 1280 832" fill="none" xmlns="http://www.w3.org/2000/svg">
<g clip-path="url(#clip0_58_1427)">
<rect width="1280" height="832" fill="url(#paint0_linear_58_1427)"/>
<path d="M-68 776.301C-20.69 732.98 110.29 650.953 255.728 669.415C401.166 687.877 427.616 690.606 522.577 640.265C592.719 603.081 592.214 537.023 676.202 497.548C760.191 458.073 880.858 493.904 991.425 387.018C1093.49 286.813 1107.31 351.187 1195.55 302.603C1266.14 263.735 1308.6 208.673 1321 186V831.566C1321 834.481 395 845.737 -68 851V776.301Z" fill="#8E57F4"/>
<path d="M-141 831.314C-81.7572 784.258 99.9247 732.983 239.313 746.391C378.7 759.8 451.999 752.777 576.367 634.651C673.351 542.534 796.263 516.525 893.594 516.525C1159.15 536.319 1148.94 334.548 1336.39 226L1343 846L-141 831.314Z" fill="#BF8CFF"/>
<g filter="url(#filter0_d_58_1427)">
<rect x="118" y="108" width="1044" height="617" rx="20" fill="white"/>
</g>
<path d="M531.23 193.114C531.23 195.865 530.563 198.256 529.23 200.287C527.897 202.318 525.951 203.884 523.391 204.984C520.852 206.085 517.762 206.635 514.123 206.635C512.515 206.635 510.939 206.529 509.394 206.317C507.871 206.106 506.4 205.799 504.982 205.397C503.586 204.974 502.253 204.455 500.983 203.842V194.701C503.184 195.674 505.469 196.553 507.839 197.335C510.209 198.118 512.557 198.51 514.885 198.51C516.493 198.51 517.784 198.298 518.757 197.875C519.751 197.452 520.471 196.87 520.915 196.129C521.359 195.389 521.582 194.542 521.582 193.59C521.582 192.427 521.19 191.432 520.407 190.607C519.624 189.782 518.545 189.009 517.17 188.29C515.816 187.571 514.282 186.798 512.568 185.973C511.489 185.465 510.314 184.852 509.045 184.132C507.775 183.392 506.569 182.493 505.427 181.435C504.284 180.377 503.343 179.097 502.602 177.594C501.883 176.071 501.523 174.251 501.523 172.135C501.523 169.363 502.158 166.994 503.427 165.026C504.697 163.058 506.506 161.556 508.854 160.519C511.224 159.461 514.017 158.932 517.233 158.932C519.646 158.932 521.941 159.218 524.121 159.789C526.321 160.339 528.617 161.143 531.008 162.201L527.834 169.85C525.697 168.983 523.782 168.316 522.089 167.851C520.397 167.364 518.672 167.121 516.916 167.121C515.689 167.121 514.641 167.322 513.774 167.724C512.906 168.104 512.25 168.655 511.806 169.374C511.362 170.072 511.14 170.887 511.14 171.818C511.14 172.918 511.457 173.849 512.092 174.611C512.748 175.351 513.721 176.071 515.012 176.769C516.324 177.467 517.953 178.282 519.899 179.213C522.269 180.334 524.29 181.509 525.961 182.736C527.654 183.942 528.955 185.37 529.865 187.021C530.775 188.65 531.23 190.681 531.23 193.114ZM571.442 170.517V206H564.016L562.714 201.461H562.207C561.445 202.667 560.493 203.651 559.35 204.413C558.208 205.175 556.949 205.736 555.573 206.095C554.198 206.455 552.77 206.635 551.289 206.635C548.75 206.635 546.538 206.19 544.655 205.302C542.772 204.392 541.302 202.985 540.244 201.081C539.207 199.176 538.688 196.701 538.688 193.654V170.517H548.369V191.242C548.369 193.781 548.824 195.696 549.733 196.986C550.643 198.277 552.093 198.922 554.082 198.922C556.049 198.922 557.594 198.478 558.715 197.589C559.837 196.68 560.62 195.357 561.064 193.622C561.529 191.866 561.762 189.729 561.762 187.211V170.517H571.442ZM591.279 156.615V168.104C591.279 169.438 591.236 170.76 591.152 172.072C591.088 173.384 591.004 174.399 590.898 175.119H591.279C592.21 173.659 593.479 172.421 595.087 171.405C596.695 170.368 598.78 169.85 601.34 169.85C605.318 169.85 608.544 171.405 611.02 174.516C613.496 177.626 614.733 182.186 614.733 188.195C614.733 192.236 614.162 195.632 613.02 198.383C611.877 201.112 610.279 203.175 608.227 204.572C606.175 205.947 603.794 206.635 601.086 206.635C598.483 206.635 596.431 206.169 594.929 205.238C593.426 204.307 592.21 203.26 591.279 202.096H590.612L588.994 206H581.599V156.615H591.279ZM598.229 177.594C596.537 177.594 595.193 177.943 594.199 178.642C593.204 179.34 592.474 180.387 592.009 181.784C591.564 183.18 591.321 184.947 591.279 187.084V188.131C591.279 191.58 591.787 194.225 592.802 196.066C593.818 197.886 595.669 198.795 598.356 198.795C600.345 198.795 601.922 197.875 603.085 196.034C604.27 194.193 604.863 191.538 604.863 188.068C604.863 184.598 604.27 181.985 603.085 180.229C601.901 178.472 600.282 177.594 598.229 177.594ZM619.875 221.615C618.775 221.615 617.632 221.531 616.447 221.361C615.262 221.213 614.278 221.033 613.496 220.822V213.205C614.278 213.416 615.019 213.564 615.717 213.649C616.394 213.755 617.167 213.808 618.034 213.808C619.346 213.808 620.457 213.437 621.367 212.697C622.277 211.977 622.731 210.549 622.731 208.412V170.517H632.412V209.84C632.412 211.999 631.999 213.966 631.174 215.744C630.349 217.542 629.016 218.97 627.175 220.028C625.334 221.086 622.901 221.615 619.875 221.615ZM622.319 161.344C622.319 159.525 622.827 158.287 623.842 157.631C624.879 156.954 626.127 156.615 627.587 156.615C629.026 156.615 630.264 156.954 631.301 157.631C632.338 158.287 632.856 159.525 632.856 161.344C632.856 163.143 632.338 164.391 631.301 165.089C630.264 165.766 629.026 166.105 627.587 166.105C626.127 166.105 624.879 165.766 623.842 165.089C622.827 164.391 622.319 163.143 622.319 161.344ZM657.231 169.85C660.511 169.85 663.335 170.485 665.705 171.754C668.075 173.003 669.905 174.822 671.196 177.213C672.486 179.604 673.132 182.524 673.132 185.973V190.67H650.249C650.354 193.4 651.169 195.548 652.692 197.113C654.237 198.658 656.374 199.43 659.104 199.43C661.368 199.43 663.441 199.197 665.324 198.732C667.207 198.266 669.143 197.568 671.132 196.637V204.127C669.376 204.995 667.535 205.63 665.61 206.032C663.706 206.434 661.389 206.635 658.659 206.635C655.104 206.635 651.952 205.979 649.201 204.667C646.472 203.355 644.324 201.356 642.758 198.668C641.214 195.981 640.441 192.596 640.441 188.512C640.441 184.365 641.14 180.916 642.536 178.166C643.954 175.394 645.922 173.32 648.439 171.945C650.957 170.548 653.888 169.85 657.231 169.85ZM657.294 176.737C655.411 176.737 653.846 177.34 652.597 178.546C651.37 179.752 650.661 181.646 650.471 184.228H664.055C664.034 182.789 663.769 181.509 663.261 180.387C662.775 179.266 662.034 178.377 661.04 177.721C660.066 177.065 658.818 176.737 657.294 176.737ZM695.412 206.635C691.9 206.635 688.906 206 686.43 204.73C683.955 203.44 682.071 201.451 680.781 198.764C679.49 196.076 678.845 192.638 678.845 188.449C678.845 184.111 679.575 180.578 681.035 177.848C682.516 175.097 684.558 173.077 687.16 171.786C689.784 170.495 692.82 169.85 696.269 169.85C698.723 169.85 700.839 170.093 702.617 170.58C704.415 171.046 705.981 171.606 707.314 172.262L704.458 179.752C702.934 179.139 701.516 178.642 700.205 178.261C698.893 177.859 697.581 177.658 696.269 177.658C694.576 177.658 693.169 178.06 692.048 178.864C690.926 179.647 690.091 180.832 689.541 182.418C688.99 184.005 688.715 185.994 688.715 188.385C688.715 190.734 689.012 192.681 689.604 194.225C690.196 195.77 691.053 196.923 692.175 197.685C693.296 198.425 694.661 198.795 696.269 198.795C698.279 198.795 700.067 198.531 701.633 198.002C703.199 197.452 704.722 196.69 706.203 195.717V204C704.722 204.931 703.167 205.598 701.538 206C699.93 206.423 697.888 206.635 695.412 206.635ZM729.404 198.922C730.462 198.922 731.488 198.817 732.482 198.605C733.498 198.393 734.503 198.129 735.498 197.812V205.016C734.461 205.482 733.17 205.862 731.625 206.159C730.102 206.476 728.431 206.635 726.611 206.635C724.495 206.635 722.591 206.296 720.898 205.619C719.226 204.921 717.904 203.725 716.931 202.033C715.979 200.319 715.502 197.938 715.502 194.892V177.785H710.869V173.69L716.201 170.453L718.994 162.963H725.183V170.517H735.117V177.785H725.183V194.892C725.183 196.246 725.563 197.261 726.325 197.938C727.108 198.594 728.134 198.922 729.404 198.922ZM767.458 195.463C767.458 197.875 766.887 199.917 765.744 201.588C764.623 203.239 762.941 204.498 760.698 205.365C758.455 206.212 755.662 206.635 752.319 206.635C749.843 206.635 747.717 206.476 745.939 206.159C744.183 205.841 742.406 205.312 740.607 204.572V196.574C742.533 197.441 744.596 198.161 746.796 198.732C749.018 199.282 750.965 199.557 752.636 199.557C754.519 199.557 755.863 199.282 756.667 198.732C757.492 198.161 757.905 197.42 757.905 196.51C757.905 195.918 757.736 195.389 757.397 194.923C757.08 194.437 756.381 193.897 755.302 193.305C754.223 192.691 752.53 191.898 750.224 190.924C748.002 189.993 746.172 189.052 744.733 188.1C743.316 187.147 742.258 186.026 741.56 184.735C740.882 183.424 740.544 181.763 740.544 179.752C740.544 176.473 741.813 174.008 744.353 172.357C746.913 170.686 750.33 169.85 754.604 169.85C756.805 169.85 758.899 170.072 760.888 170.517C762.898 170.961 764.961 171.67 767.077 172.643L764.157 179.625C762.401 178.864 760.74 178.24 759.174 177.753C757.63 177.266 756.053 177.023 754.445 177.023C753.028 177.023 751.959 177.213 751.24 177.594C750.52 177.975 750.161 178.557 750.161 179.34C750.161 179.911 750.34 180.419 750.7 180.863C751.081 181.308 751.8 181.805 752.858 182.355C753.938 182.884 755.514 183.572 757.587 184.418C759.597 185.243 761.343 186.111 762.824 187.021C764.305 187.909 765.448 189.02 766.252 190.353C767.056 191.665 767.458 193.368 767.458 195.463Z" fill="#4A4A4A"/>
</g>
<defs>
<filter id="filter0_d_58_1427" x="103" y="93" width="1074" height="647" filterUnits="userSpaceOnUse" color-interpolation-filters="sRGB">
<feFlood flood-opacity="0" result="BackgroundImageFix"/>
<feColorMatrix in="SourceAlpha" type="matrix" values="0 0 0 0 0 0 0 0 0 0 0 0 0 0 0 0 0 0 127 0" result="hardAlpha"/>
<feOffset/>
<feGaussianBlur stdDeviation="7.5"/>
<feComposite in2="hardAlpha" operator="out"/>
<feColorMatrix type="matrix" values="0 0 0 0 0 0 0 0 0 0 0 0 0 0 0 0 0 0 0.25 0"/>
<feBlend mode="normal" in2="BackgroundImageFix" result="effect1_dropShadow_58_1427"/>
<feBlend mode="normal" in="SourceGraphic" in2="effect1_dropShadow_58_1427" result="shape"/>
</filter>
<linearGradient id="paint0_linear_58_1427" x1="640" y1="0" x2="640" y2="832" gradientUnits="userSpaceOnUse">
<stop offset="0.258307" stop-color="#ECDAFE"/>
<stop offset="1" stop-color="white"/>
</linearGradient>
<clipPath id="clip0_58_1427">
<rect width="1280" height="832" fill="white"/>
</clipPath>
</defs>
</svg>
