<svg width="201" height="109" viewBox="0 0 201 109" fill="none" xmlns="http://www.w3.org/2000/svg">
<rect x="1.5" y="1.5" width="198" height="106" rx="13.5" stroke="#8E57F4" stroke-width="3"/>
<mask id="path-2-outside-1_47_817" maskUnits="userSpaceOnUse" x="14" y="15" width="80" height="28" fill="black">
<rect fill="white" x="14" y="15" width="80" height="28"/>
<path d="M20.6553 17.4395C22.2549 17.4395 23.5752 17.6341 24.6162 18.0234C25.6657 18.4128 26.4443 19.0052 26.9521 19.8008C27.4684 20.5964 27.7266 21.6077 27.7266 22.835C27.7266 23.749 27.5573 24.5277 27.2188 25.1709C26.8802 25.8141 26.4359 26.3473 25.8857 26.7705C25.3356 27.1937 24.7474 27.5322 24.1211 27.7861L29.3896 36H25.9492L21.4678 28.5605H18.4844V36H15.4375V17.4395H20.6553ZM20.4521 19.9785H18.4844V26.0469H20.5918C22.0052 26.0469 23.0293 25.7845 23.6641 25.2598C24.3073 24.735 24.6289 23.9606 24.6289 22.9365C24.6289 21.8617 24.2861 21.0999 23.6006 20.6514C22.9235 20.2028 21.874 19.9785 20.4521 19.9785ZM37.248 21.6797C39.0254 21.6797 40.3669 22.0732 41.2725 22.8604C42.1865 23.6475 42.6436 24.8747 42.6436 26.542V36H40.5234L39.9521 34.0068H39.8506C39.4528 34.5146 39.0423 34.9336 38.6191 35.2637C38.196 35.5938 37.7051 35.8392 37.1465 36C36.5964 36.1693 35.9235 36.2539 35.1279 36.2539C34.29 36.2539 33.541 36.1016 32.8809 35.7969C32.2207 35.4837 31.7002 35.0098 31.3193 34.375C30.9385 33.7402 30.748 32.9362 30.748 31.9629C30.748 30.5156 31.2855 29.4281 32.3604 28.7002C33.4437 27.9723 35.0771 27.5703 37.2607 27.4941L39.6982 27.4053V26.6689C39.6982 25.6956 39.4697 25.0016 39.0127 24.5869C38.5641 24.1722 37.9294 23.9648 37.1084 23.9648C36.4059 23.9648 35.7246 24.0664 35.0645 24.2695C34.4043 24.4727 33.7611 24.7223 33.1348 25.0186L32.1699 22.9111C32.8555 22.5472 33.6341 22.251 34.5059 22.0225C35.3861 21.7939 36.3001 21.6797 37.248 21.6797ZM39.6855 29.2842L37.8701 29.3477C36.3805 29.3984 35.3353 29.6523 34.7344 30.1094C34.1335 30.5664 33.833 31.1927 33.833 31.9883C33.833 32.6823 34.0404 33.1901 34.4551 33.5117C34.8698 33.8249 35.4157 33.9814 36.0928 33.9814C37.1253 33.9814 37.9801 33.6895 38.6572 33.1055C39.3428 32.513 39.6855 31.6455 39.6855 30.5029V29.2842ZM52.0508 33.8418C52.4401 33.8418 52.8252 33.8079 53.2061 33.7402C53.5869 33.6641 53.9339 33.5752 54.2471 33.4736V35.7334C53.917 35.8773 53.4896 36 52.9648 36.1016C52.4401 36.2031 51.8942 36.2539 51.3271 36.2539C50.5316 36.2539 49.8164 36.1227 49.1816 35.8604C48.5469 35.5895 48.0433 35.1283 47.6709 34.4766C47.2985 33.8249 47.1123 32.9235 47.1123 31.7725V24.2188H45.1953V22.8857L47.252 21.832L48.2295 18.8232H50.1084V21.9463H54.1328V24.2188H50.1084V31.7344C50.1084 32.4453 50.2861 32.9743 50.6416 33.3213C50.9971 33.6683 51.4668 33.8418 52.0508 33.8418ZM60.0869 21.9463V36H57.1035V21.9463H60.0869ZM58.6143 16.5635C59.0713 16.5635 59.4648 16.6862 59.7949 16.9316C60.1335 17.1771 60.3027 17.6003 60.3027 18.2012C60.3027 18.7936 60.1335 19.2168 59.7949 19.4707C59.4648 19.7161 59.0713 19.8389 58.6143 19.8389C58.1403 19.8389 57.7383 19.7161 57.4082 19.4707C57.0866 19.2168 56.9258 18.7936 56.9258 18.2012C56.9258 17.6003 57.0866 17.1771 57.4082 16.9316C57.7383 16.6862 58.1403 16.5635 58.6143 16.5635ZM71.6904 21.6797C73.2731 21.6797 74.5046 22.0902 75.3848 22.9111C76.2734 23.7236 76.7178 25.0312 76.7178 26.834V36H73.7344V27.3926C73.7344 26.3008 73.5101 25.484 73.0615 24.9424C72.613 24.3923 71.9189 24.1172 70.9795 24.1172C69.6169 24.1172 68.6689 24.5361 68.1357 25.374C67.611 26.2119 67.3486 27.4264 67.3486 29.0176V36H64.3652V21.9463H66.6885L67.1074 23.8506H67.2725C67.5771 23.3597 67.9538 22.9577 68.4023 22.6445C68.8594 22.3229 69.3672 22.0817 69.9258 21.9209C70.4928 21.7601 71.0811 21.6797 71.6904 21.6797ZM84.9062 42.2461C83.002 42.2461 81.542 41.9033 80.5264 41.2178C79.5107 40.5322 79.0029 39.5716 79.0029 38.3359C79.0029 37.4727 79.2738 36.7406 79.8154 36.1396C80.3571 35.5472 81.1315 35.1367 82.1387 34.9082C81.7578 34.7389 81.4277 34.4766 81.1484 34.1211C80.8776 33.7572 80.7422 33.3551 80.7422 32.915C80.7422 32.3903 80.8903 31.9417 81.1865 31.5693C81.4827 31.1969 81.9271 30.8372 82.5195 30.4902C81.7832 30.1771 81.1908 29.6693 80.7422 28.9668C80.3021 28.2559 80.082 27.4222 80.082 26.4658C80.082 25.4502 80.2979 24.5869 80.7295 23.876C81.1611 23.1566 81.7917 22.6107 82.6211 22.2383C83.4505 21.8574 84.4535 21.667 85.6299 21.667C85.8838 21.667 86.1589 21.6839 86.4551 21.7178C86.7598 21.7432 87.0391 21.777 87.293 21.8193C87.5553 21.8532 87.7542 21.8913 87.8896 21.9336H92.752V23.5967L90.3652 24.041C90.5938 24.3626 90.7757 24.7308 90.9111 25.1455C91.0465 25.5518 91.1143 25.9961 91.1143 26.4785C91.1143 27.9342 90.6107 29.0811 89.6035 29.9189C88.6048 30.7484 87.2253 31.1631 85.4648 31.1631C85.0417 31.1462 84.6312 31.1123 84.2334 31.0615C83.9287 31.2477 83.696 31.4551 83.5352 31.6836C83.3743 31.9036 83.2939 32.1533 83.2939 32.4326C83.2939 32.6611 83.3743 32.8473 83.5352 32.9912C83.696 33.1266 83.9329 33.2282 84.2461 33.2959C84.5677 33.3636 84.957 33.3975 85.4141 33.3975H87.8389C89.3792 33.3975 90.5557 33.7233 91.3682 34.375C92.1807 35.0267 92.5869 35.9831 92.5869 37.2441C92.5869 38.8438 91.9268 40.0752 90.6064 40.9385C89.2861 41.8102 87.3861 42.2461 84.9062 42.2461ZM85.0205 40.1514C86.0615 40.1514 86.9375 40.0498 87.6484 39.8467C88.3594 39.6436 88.8968 39.3516 89.2607 38.9707C89.6247 38.5983 89.8066 38.154 89.8066 37.6377C89.8066 37.1807 89.6924 36.8294 89.4639 36.584C89.2354 36.3385 88.8926 36.1693 88.4355 36.0762C87.9785 35.9831 87.4115 35.9365 86.7344 35.9365H84.5254C83.9753 35.9365 83.4886 36.0212 83.0654 36.1904C82.6423 36.3682 82.3122 36.6221 82.0752 36.9521C81.8467 37.2822 81.7324 37.68 81.7324 38.1455C81.7324 38.7887 82.016 39.2839 82.583 39.6309C83.1585 39.9779 83.971 40.1514 85.0205 40.1514ZM85.6045 29.208C86.4762 29.208 87.1237 28.971 87.5469 28.4971C87.9701 28.0146 88.1816 27.3376 88.1816 26.4658C88.1816 25.5179 87.9616 24.807 87.5215 24.333C87.0898 23.859 86.4466 23.6221 85.5918 23.6221C84.7539 23.6221 84.1149 23.8633 83.6748 24.3457C83.2432 24.8281 83.0273 25.5433 83.0273 26.4912C83.0273 27.346 83.2432 28.0146 83.6748 28.4971C84.1149 28.971 84.7581 29.208 85.6045 29.208Z"/>
</mask>
<path d="M20.6553 17.4395C22.2549 17.4395 23.5752 17.6341 24.6162 18.0234C25.6657 18.4128 26.4443 19.0052 26.9521 19.8008C27.4684 20.5964 27.7266 21.6077 27.7266 22.835C27.7266 23.749 27.5573 24.5277 27.2188 25.1709C26.8802 25.8141 26.4359 26.3473 25.8857 26.7705C25.3356 27.1937 24.7474 27.5322 24.1211 27.7861L29.3896 36H25.9492L21.4678 28.5605H18.4844V36H15.4375V17.4395H20.6553ZM20.4521 19.9785H18.4844V26.0469H20.5918C22.0052 26.0469 23.0293 25.7845 23.6641 25.2598C24.3073 24.735 24.6289 23.9606 24.6289 22.9365C24.6289 21.8617 24.2861 21.0999 23.6006 20.6514C22.9235 20.2028 21.874 19.9785 20.4521 19.9785ZM37.248 21.6797C39.0254 21.6797 40.3669 22.0732 41.2725 22.8604C42.1865 23.6475 42.6436 24.8747 42.6436 26.542V36H40.5234L39.9521 34.0068H39.8506C39.4528 34.5146 39.0423 34.9336 38.6191 35.2637C38.196 35.5938 37.7051 35.8392 37.1465 36C36.5964 36.1693 35.9235 36.2539 35.1279 36.2539C34.29 36.2539 33.541 36.1016 32.8809 35.7969C32.2207 35.4837 31.7002 35.0098 31.3193 34.375C30.9385 33.7402 30.748 32.9362 30.748 31.9629C30.748 30.5156 31.2855 29.4281 32.3604 28.7002C33.4437 27.9723 35.0771 27.5703 37.2607 27.4941L39.6982 27.4053V26.6689C39.6982 25.6956 39.4697 25.0016 39.0127 24.5869C38.5641 24.1722 37.9294 23.9648 37.1084 23.9648C36.4059 23.9648 35.7246 24.0664 35.0645 24.2695C34.4043 24.4727 33.7611 24.7223 33.1348 25.0186L32.1699 22.9111C32.8555 22.5472 33.6341 22.251 34.5059 22.0225C35.3861 21.7939 36.3001 21.6797 37.248 21.6797ZM39.6855 29.2842L37.8701 29.3477C36.3805 29.3984 35.3353 29.6523 34.7344 30.1094C34.1335 30.5664 33.833 31.1927 33.833 31.9883C33.833 32.6823 34.0404 33.1901 34.4551 33.5117C34.8698 33.8249 35.4157 33.9814 36.0928 33.9814C37.1253 33.9814 37.9801 33.6895 38.6572 33.1055C39.3428 32.513 39.6855 31.6455 39.6855 30.5029V29.2842ZM52.0508 33.8418C52.4401 33.8418 52.8252 33.8079 53.2061 33.7402C53.5869 33.6641 53.9339 33.5752 54.2471 33.4736V35.7334C53.917 35.8773 53.4896 36 52.9648 36.1016C52.4401 36.2031 51.8942 36.2539 51.3271 36.2539C50.5316 36.2539 49.8164 36.1227 49.1816 35.8604C48.5469 35.5895 48.0433 35.1283 47.6709 34.4766C47.2985 33.8249 47.1123 32.9235 47.1123 31.7725V24.2188H45.1953V22.8857L47.252 21.832L48.2295 18.8232H50.1084V21.9463H54.1328V24.2188H50.1084V31.7344C50.1084 32.4453 50.2861 32.9743 50.6416 33.3213C50.9971 33.6683 51.4668 33.8418 52.0508 33.8418ZM60.0869 21.9463V36H57.1035V21.9463H60.0869ZM58.6143 16.5635C59.0713 16.5635 59.4648 16.6862 59.7949 16.9316C60.1335 17.1771 60.3027 17.6003 60.3027 18.2012C60.3027 18.7936 60.1335 19.2168 59.7949 19.4707C59.4648 19.7161 59.0713 19.8389 58.6143 19.8389C58.1403 19.8389 57.7383 19.7161 57.4082 19.4707C57.0866 19.2168 56.9258 18.7936 56.9258 18.2012C56.9258 17.6003 57.0866 17.1771 57.4082 16.9316C57.7383 16.6862 58.1403 16.5635 58.6143 16.5635ZM71.6904 21.6797C73.2731 21.6797 74.5046 22.0902 75.3848 22.9111C76.2734 23.7236 76.7178 25.0312 76.7178 26.834V36H73.7344V27.3926C73.7344 26.3008 73.5101 25.484 73.0615 24.9424C72.613 24.3923 71.9189 24.1172 70.9795 24.1172C69.6169 24.1172 68.6689 24.5361 68.1357 25.374C67.611 26.2119 67.3486 27.4264 67.3486 29.0176V36H64.3652V21.9463H66.6885L67.1074 23.8506H67.2725C67.5771 23.3597 67.9538 22.9577 68.4023 22.6445C68.8594 22.3229 69.3672 22.0817 69.9258 21.9209C70.4928 21.7601 71.0811 21.6797 71.6904 21.6797ZM84.9062 42.2461C83.002 42.2461 81.542 41.9033 80.5264 41.2178C79.5107 40.5322 79.0029 39.5716 79.0029 38.3359C79.0029 37.4727 79.2738 36.7406 79.8154 36.1396C80.3571 35.5472 81.1315 35.1367 82.1387 34.9082C81.7578 34.7389 81.4277 34.4766 81.1484 34.1211C80.8776 33.7572 80.7422 33.3551 80.7422 32.915C80.7422 32.3903 80.8903 31.9417 81.1865 31.5693C81.4827 31.1969 81.9271 30.8372 82.5195 30.4902C81.7832 30.1771 81.1908 29.6693 80.7422 28.9668C80.3021 28.2559 80.082 27.4222 80.082 26.4658C80.082 25.4502 80.2979 24.5869 80.7295 23.876C81.1611 23.1566 81.7917 22.6107 82.6211 22.2383C83.4505 21.8574 84.4535 21.667 85.6299 21.667C85.8838 21.667 86.1589 21.6839 86.4551 21.7178C86.7598 21.7432 87.0391 21.777 87.293 21.8193C87.5553 21.8532 87.7542 21.8913 87.8896 21.9336H92.752V23.5967L90.3652 24.041C90.5938 24.3626 90.7757 24.7308 90.9111 25.1455C91.0465 25.5518 91.1143 25.9961 91.1143 26.4785C91.1143 27.9342 90.6107 29.0811 89.6035 29.9189C88.6048 30.7484 87.2253 31.1631 85.4648 31.1631C85.0417 31.1462 84.6312 31.1123 84.2334 31.0615C83.9287 31.2477 83.696 31.4551 83.5352 31.6836C83.3743 31.9036 83.2939 32.1533 83.2939 32.4326C83.2939 32.6611 83.3743 32.8473 83.5352 32.9912C83.696 33.1266 83.9329 33.2282 84.2461 33.2959C84.5677 33.3636 84.957 33.3975 85.4141 33.3975H87.8389C89.3792 33.3975 90.5557 33.7233 91.3682 34.375C92.1807 35.0267 92.5869 35.9831 92.5869 37.2441C92.5869 38.8438 91.9268 40.0752 90.6064 40.9385C89.2861 41.8102 87.3861 42.2461 84.9062 42.2461ZM85.0205 40.1514C86.0615 40.1514 86.9375 40.0498 87.6484 39.8467C88.3594 39.6436 88.8968 39.3516 89.2607 38.9707C89.6247 38.5983 89.8066 38.154 89.8066 37.6377C89.8066 37.1807 89.6924 36.8294 89.4639 36.584C89.2354 36.3385 88.8926 36.1693 88.4355 36.0762C87.9785 35.9831 87.4115 35.9365 86.7344 35.9365H84.5254C83.9753 35.9365 83.4886 36.0212 83.0654 36.1904C82.6423 36.3682 82.3122 36.6221 82.0752 36.9521C81.8467 37.2822 81.7324 37.68 81.7324 38.1455C81.7324 38.7887 82.016 39.2839 82.583 39.6309C83.1585 39.9779 83.971 40.1514 85.0205 40.1514ZM85.6045 29.208C86.4762 29.208 87.1237 28.971 87.5469 28.4971C87.9701 28.0146 88.1816 27.3376 88.1816 26.4658C88.1816 25.5179 87.9616 24.807 87.5215 24.333C87.0898 23.859 86.4466 23.6221 85.5918 23.6221C84.7539 23.6221 84.1149 23.8633 83.6748 24.3457C83.2432 24.8281 83.0273 25.5433 83.0273 26.4912C83.0273 27.346 83.2432 28.0146 83.6748 28.4971C84.1149 28.971 84.7581 29.208 85.6045 29.208Z" fill="#4A4A4A"/>
<path d="M24.6162 18.0234L24.3589 18.7116L24.3607 18.7122L24.6162 18.0234ZM26.9521 19.8008L26.3329 20.1961L26.3359 20.2007L26.9521 19.8008ZM25.8857 26.7705L26.3337 27.3528L25.8857 26.7705ZM24.1211 27.7861L23.8451 27.1053L23.0249 27.4378L23.5027 28.1828L24.1211 27.7861ZM29.3896 36V36.7347H30.7337L30.008 35.6034L29.3896 36ZM25.9492 36L25.3199 36.3791L25.5341 36.7347H25.9492V36ZM21.4678 28.5605L22.0971 28.1815L21.8829 27.8259H21.4678V28.5605ZM18.4844 28.5605V27.8259H17.7497V28.5605H18.4844ZM18.4844 36V36.7347H19.219V36H18.4844ZM15.4375 36H14.7028V36.7347H15.4375V36ZM15.4375 17.4395V16.7048H14.7028V17.4395H15.4375ZM18.4844 19.9785V19.2438H17.7497V19.9785H18.4844ZM18.4844 26.0469H17.7497V26.7815H18.4844V26.0469ZM23.6641 25.2598L23.1996 24.6905L23.196 24.6935L23.6641 25.2598ZM23.6006 20.6514L23.1948 21.2638L23.1983 21.2661L23.6006 20.6514ZM20.6553 17.4395V18.1741C22.2023 18.1741 23.4278 18.3633 24.3589 18.7116L24.6162 18.0234L24.8736 17.3353C23.7226 16.9049 22.3074 16.7048 20.6553 16.7048V17.4395ZM24.6162 18.0234L24.3607 18.7122C25.289 19.0566 25.9263 19.5591 26.3329 20.1961L26.9521 19.8008L27.5714 19.4055C26.9624 18.4513 26.0424 17.7689 24.8717 17.3346L24.6162 18.0234ZM26.9521 19.8008L26.3359 20.2007C26.7551 20.8468 26.9919 21.7085 26.9919 22.835H27.7266H28.4612C28.4612 21.507 28.1817 20.3459 27.5684 19.4009L26.9521 19.8008ZM27.7266 22.835H26.9919C26.9919 23.6598 26.8392 24.3147 26.5686 24.8287L27.2188 25.1709L27.8689 25.5131C28.2754 24.7406 28.4612 23.8382 28.4612 22.835H27.7266ZM27.2188 25.1709L26.5686 24.8287C26.277 25.3828 25.9001 25.8326 25.4378 26.1882L25.8857 26.7705L26.3337 27.3528C26.9717 26.862 27.4834 26.2454 27.8689 25.5131L27.2188 25.1709ZM25.8857 26.7705L25.4378 26.1882C24.9388 26.572 24.4082 26.877 23.8451 27.1053L24.1211 27.7861L24.3971 28.467C25.0866 28.1875 25.7324 27.8154 26.3337 27.3528L25.8857 26.7705ZM24.1211 27.7861L23.5027 28.1828L28.7713 36.3966L29.3896 36L30.008 35.6034L24.7395 27.3895L24.1211 27.7861ZM29.3896 36V35.2653H25.9492V36V36.7347H29.3896V36ZM25.9492 36L26.5785 35.6209L22.0971 28.1815L21.4678 28.5605L20.8385 28.9396L25.3199 36.3791L25.9492 36ZM21.4678 28.5605V27.8259H18.4844V28.5605V29.2952H21.4678V28.5605ZM18.4844 28.5605H17.7497V36H18.4844H19.219V28.5605H18.4844ZM18.4844 36V35.2653H15.4375V36V36.7347H18.4844V36ZM15.4375 36H16.1722V17.4395H15.4375H14.7028V36H15.4375ZM15.4375 17.4395V18.1741H20.6553V17.4395V16.7048H15.4375V17.4395ZM20.4521 19.9785V19.2438H18.4844V19.9785V20.7132H20.4521V19.9785ZM18.4844 19.9785H17.7497V26.0469H18.4844H19.219V19.9785H18.4844ZM18.4844 26.0469V26.7815H20.5918V26.0469V25.3122H18.4844V26.0469ZM20.5918 26.0469V26.7815C22.0648 26.7815 23.2999 26.514 24.1322 25.826L23.6641 25.2598L23.196 24.6935C22.7587 25.055 21.9456 25.3122 20.5918 25.3122V26.0469ZM23.6641 25.2598L24.1285 25.829C24.9822 25.1325 25.3636 24.1247 25.3636 22.9365H24.6289H23.8942C23.8942 23.7965 23.6324 24.3375 23.1997 24.6905L23.6641 25.2598ZM24.6289 22.9365H25.3636C25.3636 21.7003 24.9591 20.6623 24.0028 20.0366L23.6006 20.6514L23.1983 21.2661C23.6132 21.5376 23.8942 22.023 23.8942 22.9365H24.6289ZM23.6006 20.6514L24.0063 20.0389C23.1486 19.4707 21.9231 19.2438 20.4521 19.2438V19.9785V20.7132C21.8249 20.7132 22.6984 20.9349 23.1948 21.2638L23.6006 20.6514ZM41.2725 22.8604L40.7905 23.4149L40.7931 23.4171L41.2725 22.8604ZM42.6436 36V36.7347H43.3782V36H42.6436ZM40.5234 36L39.8172 36.2024L39.9698 36.7347H40.5234V36ZM39.9521 34.0068L40.6584 33.8044L40.5058 33.2722H39.9521V34.0068ZM39.8506 34.0068V33.2722H39.4928L39.2722 33.5538L39.8506 34.0068ZM37.1465 36L36.9432 35.2939L36.9304 35.2978L37.1465 36ZM32.8809 35.7969L32.566 36.4607L32.573 36.4639L32.8809 35.7969ZM32.3604 28.7002L31.9506 28.0904L31.9484 28.0919L32.3604 28.7002ZM37.2607 27.4941L37.2864 28.2284L37.2875 28.2283L37.2607 27.4941ZM39.6982 27.4053L39.725 28.1395L40.4329 28.1136V27.4053H39.6982ZM39.0127 24.5869L38.5139 25.1264L38.519 25.131L39.0127 24.5869ZM33.1348 25.0186L32.4668 25.3244L32.7764 26.0007L33.4489 25.6827L33.1348 25.0186ZM32.1699 22.9111L31.8254 22.2622L31.2135 22.5871L31.5019 23.217L32.1699 22.9111ZM34.5059 22.0225L34.3212 21.3114L34.3196 21.3118L34.5059 22.0225ZM39.6855 29.2842H40.4202V28.5234L39.6599 28.55L39.6855 29.2842ZM37.8701 29.3477L37.8951 30.0819L37.8958 30.0819L37.8701 29.3477ZM34.4551 33.5117L34.0048 34.0923L34.0124 34.098L34.4551 33.5117ZM38.6572 33.1055L39.1371 33.6618L39.1376 33.6613L38.6572 33.1055ZM37.248 21.6797V22.4144C38.9312 22.4144 40.0702 22.7887 40.7905 23.4148L41.2725 22.8604L41.7544 22.3059C40.6636 21.3577 39.1195 20.945 37.248 20.945V21.6797ZM41.2725 22.8604L40.7931 23.4171C41.4899 24.0171 41.9089 25.0031 41.9089 26.542H42.6436H43.3782C43.3782 24.7462 42.8831 23.2778 41.7518 22.3036L41.2725 22.8604ZM42.6436 26.542H41.9089V36H42.6436H43.3782V26.542H42.6436ZM42.6436 36V35.2653H40.5234V36V36.7347H42.6436V36ZM40.5234 36L41.2297 35.7976L40.6584 33.8044L39.9521 34.0068L39.2459 34.2093L39.8172 36.2024L40.5234 36ZM39.9521 34.0068V33.2722H39.8506V34.0068V34.7415H39.9521V34.0068ZM39.8506 34.0068L39.2722 33.5538C38.9042 34.0237 38.535 34.3976 38.1673 34.6844L38.6191 35.2637L39.071 35.843C39.5497 35.4696 40.0014 35.0056 40.4289 34.4599L39.8506 34.0068ZM38.6191 35.2637L38.1673 34.6844C37.8241 34.9521 37.4192 35.157 36.9432 35.294L37.1465 36L37.3497 36.706C37.991 36.5214 38.5678 36.2354 39.071 35.843L38.6191 35.2637ZM37.1465 36L36.9304 35.2978C36.4713 35.4391 35.8761 35.5192 35.1279 35.5192V36.2539V36.9886C35.9709 36.9886 36.7214 36.8995 37.3625 36.7022L37.1465 36ZM35.1279 36.2539V35.5192C34.3802 35.5192 33.7387 35.3837 33.1887 35.1298L32.8809 35.7969L32.573 36.4639C33.3433 36.8195 34.1999 36.9886 35.1279 36.9886V36.2539ZM32.8809 35.7969L33.1957 35.1331C32.6683 34.8829 32.2567 34.5093 31.9493 33.997L31.3193 34.375L30.6894 34.753C31.1437 35.5103 31.7731 36.0845 32.566 36.4606L32.8809 35.7969ZM31.3193 34.375L31.9493 33.997C31.6553 33.507 31.4827 32.8439 31.4827 31.9629H30.748H30.0134C30.0134 33.0285 30.2216 33.9735 30.6894 34.753L31.3193 34.375ZM30.748 31.9629H31.4827C31.4827 30.7266 31.925 29.8823 32.7723 29.3085L32.3604 28.7002L31.9484 28.0919C30.646 28.9738 30.0134 30.3047 30.0134 31.9629H30.748ZM32.3604 28.7002L32.7701 29.31C33.6864 28.6944 35.1575 28.3026 37.2864 28.2284L37.2607 27.4941L37.2351 26.7599C34.9968 26.838 33.201 27.2503 31.9506 28.0904L32.3604 28.7002ZM37.2607 27.4941L37.2875 28.2283L39.725 28.1395L39.6982 27.4053L39.6715 26.6711L37.234 26.76L37.2607 27.4941ZM39.6982 27.4053H40.4329V26.6689H39.6982H38.9636V27.4053H39.6982ZM39.6982 26.6689H40.4329C40.4329 25.606 40.1864 24.6599 39.5064 24.0428L39.0127 24.5869L38.519 25.131C38.753 25.3433 38.9636 25.7853 38.9636 26.6689H39.6982ZM39.0127 24.5869L39.5114 24.0475C38.8861 23.4693 38.0495 23.2302 37.1084 23.2302V23.9648V24.6995C37.8092 24.6995 38.2422 24.8751 38.514 25.1264L39.0127 24.5869ZM37.1084 23.9648V23.2302C36.334 23.2302 35.5797 23.3423 34.8484 23.5674L35.0645 24.2695L35.2805 24.9717C35.8695 24.7905 36.4779 24.6995 37.1084 24.6995V23.9648ZM35.0645 24.2695L34.8484 23.5674C34.1546 23.7808 33.4786 24.0432 32.8206 24.3544L33.1348 25.0186L33.4489 25.6827C34.0435 25.4014 34.654 25.1645 35.2805 24.9717L35.0645 24.2695ZM33.1348 25.0186L33.8028 24.7127L32.8379 22.6053L32.1699 22.9111L31.5019 23.217L32.4668 25.3244L33.1348 25.0186ZM32.1699 22.9111L32.5144 23.56C33.1425 23.2266 33.8668 22.9495 34.6921 22.7331L34.5059 22.0225L34.3196 21.3118C33.4015 21.5525 32.5684 21.8678 31.8254 22.2622L32.1699 22.9111ZM34.5059 22.0225L34.6905 22.7336C35.5079 22.5213 36.3598 22.4144 37.248 22.4144V21.6797V20.945C36.2405 20.945 35.2643 21.0665 34.3212 21.3114L34.5059 22.0225ZM39.6855 29.2842L39.6599 28.55L37.8444 28.6134L37.8701 29.3477L37.8958 30.0819L39.7112 30.0184L39.6855 29.2842ZM37.8701 29.3477L37.8451 28.6134C36.3274 28.6652 35.0826 28.9215 34.2896 29.5246L34.7344 30.1094L35.1791 30.6941C35.588 30.3831 36.4337 30.1317 37.8951 30.0819L37.8701 29.3477ZM34.7344 30.1094L34.2896 29.5246C33.4949 30.1291 33.0983 30.9776 33.0983 31.9883H33.833H34.5677C34.5677 31.4078 34.772 31.0037 35.1791 30.6941L34.7344 30.1094ZM33.833 31.9883H33.0983C33.0983 32.8302 33.3563 33.5893 34.0049 34.0923L34.4551 33.5117L34.9053 32.9312C34.7245 32.7909 34.5677 32.5344 34.5677 31.9883H33.833ZM34.4551 33.5117L34.0124 34.098C34.5885 34.5331 35.3044 34.7161 36.0928 34.7161V33.9814V33.2468C35.527 33.2468 35.1511 33.1167 34.8978 32.9254L34.4551 33.5117ZM36.0928 33.9814V34.7161C37.2726 34.7161 38.3062 34.3784 39.1371 33.6618L38.6572 33.1055L38.1774 32.5491C37.6541 33.0005 36.9781 33.2468 36.0928 33.2468V33.9814ZM38.6572 33.1055L39.1376 33.6613C40.0251 32.8943 40.4202 31.7988 40.4202 30.5029H39.6855H38.9509C38.9509 31.4922 38.6604 32.1317 38.1769 32.5496L38.6572 33.1055ZM39.6855 30.5029H40.4202V29.2842H39.6855H38.9509V30.5029H39.6855ZM53.2061 33.7402L53.3346 34.4636L53.3424 34.4622L53.3501 34.4606L53.2061 33.7402ZM54.2471 33.4736H54.9817V32.463L54.0204 32.7748L54.2471 33.4736ZM54.2471 35.7334L54.5406 36.4069L54.9817 36.2146V35.7334H54.2471ZM49.1816 35.8604L48.8933 36.5361L48.901 36.5393L49.1816 35.8604ZM47.1123 24.2188H47.847V23.4841H47.1123V24.2188ZM45.1953 24.2188H44.4606V24.9534H45.1953V24.2188ZM45.1953 22.8857L44.8603 22.2319L44.4606 22.4367V22.8857H45.1953ZM47.252 21.832L47.5869 22.4859L47.8569 22.3476L47.9507 22.059L47.252 21.832ZM48.2295 18.8232V18.0886H47.6957L47.5308 18.5962L48.2295 18.8232ZM50.1084 18.8232H50.8431V18.0886H50.1084V18.8232ZM50.1084 21.9463H49.3737V22.681H50.1084V21.9463ZM54.1328 21.9463H54.8675V21.2116H54.1328V21.9463ZM54.1328 24.2188V24.9534H54.8675V24.2188H54.1328ZM50.1084 24.2188V23.4841H49.3737V24.2188H50.1084ZM52.0508 33.8418V34.5765C52.4829 34.5765 52.9111 34.5389 53.3346 34.4636L53.2061 33.7402L53.0775 33.0169C52.7393 33.077 52.3973 33.1071 52.0508 33.1071V33.8418ZM53.2061 33.7402L53.3501 34.4606C53.7541 34.3798 54.1292 34.2842 54.4737 34.1725L54.2471 33.4736L54.0204 32.7748C53.7386 32.8662 53.4197 32.9483 53.062 33.0198L53.2061 33.7402ZM54.2471 33.4736H53.5124V35.7334H54.2471H54.9817V33.4736H54.2471ZM54.2471 35.7334L53.9535 35.0599C53.6904 35.1746 53.3199 35.2845 52.8252 35.3803L52.9648 36.1016L53.1044 36.8228C53.6593 36.7155 54.1436 36.5799 54.5406 36.4069L54.2471 35.7334ZM52.9648 36.1016L52.8252 35.3803C52.3492 35.4724 51.8502 35.5192 51.3271 35.5192V36.2539V36.9886C51.9382 36.9886 52.531 36.9338 53.1044 36.8228L52.9648 36.1016ZM51.3271 36.2539V35.5192C50.6128 35.5192 49.9951 35.4016 49.4623 35.1814L49.1816 35.8604L48.901 36.5393C49.6377 36.8438 50.4504 36.9886 51.3271 36.9886V36.2539ZM49.1816 35.8604L49.47 35.1846C48.9956 34.9822 48.6091 34.6376 48.3088 34.1121L47.6709 34.4766L47.033 34.8411C47.4775 35.6189 48.0981 36.1968 48.8933 36.5361L49.1816 35.8604ZM47.6709 34.4766L48.3088 34.1121C48.0249 33.6153 47.847 32.8582 47.847 31.7725H47.1123H46.3776C46.3776 32.9888 46.5721 34.0344 47.033 34.8411L47.6709 34.4766ZM47.1123 31.7725H47.847V24.2188H47.1123H46.3776V31.7725H47.1123ZM47.1123 24.2188V23.4841H45.1953V24.2188V24.9534H47.1123V24.2188ZM45.1953 24.2188H45.93V22.8857H45.1953H44.4606V24.2188H45.1953ZM45.1953 22.8857L45.5303 23.5396L47.5869 22.4859L47.252 21.832L46.917 21.1782L44.8603 22.2319L45.1953 22.8857ZM47.252 21.832L47.9507 22.059L48.9282 19.0503L48.2295 18.8232L47.5308 18.5962L46.5532 21.605L47.252 21.832ZM48.2295 18.8232V19.5579H50.1084V18.8232V18.0886H48.2295V18.8232ZM50.1084 18.8232H49.3737V21.9463H50.1084H50.8431V18.8232H50.1084ZM50.1084 21.9463V22.681H54.1328V21.9463V21.2116H50.1084V21.9463ZM54.1328 21.9463H53.3981V24.2188H54.1328H54.8675V21.9463H54.1328ZM54.1328 24.2188V23.4841H50.1084V24.2188V24.9534H54.1328V24.2188ZM50.1084 24.2188H49.3737V31.7344H50.1084H50.8431V24.2188H50.1084ZM50.1084 31.7344H49.3737C49.3737 32.557 49.5797 33.3113 50.1284 33.847L50.6416 33.3213L51.1548 32.7956C50.9926 32.6372 50.8431 32.3336 50.8431 31.7344H50.1084ZM50.6416 33.3213L50.1284 33.847C50.645 34.3513 51.3112 34.5765 52.0508 34.5765V33.8418V33.1071C51.6224 33.1071 51.3492 32.9853 51.1548 32.7956L50.6416 33.3213ZM60.0869 21.9463H60.8216V21.2116H60.0869V21.9463ZM60.0869 36V36.7347H60.8216V36H60.0869ZM57.1035 36H56.3688V36.7347H57.1035V36ZM57.1035 21.9463V21.2116H56.3688V21.9463H57.1035ZM59.7949 16.9316L59.3565 17.5212L59.3637 17.5264L59.7949 16.9316ZM59.7949 19.4707L60.2333 20.0603L60.2357 20.0584L59.7949 19.4707ZM57.4082 19.4707L56.953 20.0473L56.9613 20.0539L56.9698 20.0602L57.4082 19.4707ZM57.4082 16.9316L56.9698 16.3421L56.9625 16.3476L57.4082 16.9316ZM60.0869 21.9463H59.3522V36H60.0869H60.8216V21.9463H60.0869ZM60.0869 36V35.2653H57.1035V36V36.7347H60.0869V36ZM57.1035 36H57.8382V21.9463H57.1035H56.3688V36H57.1035ZM57.1035 21.9463V22.681H60.0869V21.9463V21.2116H57.1035V21.9463ZM58.6143 16.5635V17.2981C58.9318 17.2981 59.1672 17.3804 59.3565 17.5212L59.7949 16.9316L60.2333 16.3421C59.7624 15.992 59.2108 15.8288 58.6143 15.8288V16.5635ZM59.7949 16.9316L59.3637 17.5264C59.4378 17.5801 59.5681 17.7265 59.5681 18.2012H60.3027H61.0374C61.0374 17.474 60.8292 16.774 60.2261 16.3368L59.7949 16.9316ZM60.3027 18.2012H59.5681C59.5681 18.6609 59.441 18.8178 59.3541 18.883L59.7949 19.4707L60.2357 20.0584C60.826 19.6158 61.0374 18.9263 61.0374 18.2012H60.3027ZM59.7949 19.4707L59.3565 18.8812C59.1672 19.0219 58.9318 19.1042 58.6143 19.1042V19.8389V20.5735C59.2108 20.5735 59.7624 20.4104 60.2333 20.0602L59.7949 19.4707ZM58.6143 19.8389V19.1042C58.2732 19.1042 58.0312 19.0185 57.8466 18.8812L57.4082 19.4707L56.9698 20.0602C57.4453 20.4138 58.0074 20.5735 58.6143 20.5735V19.8389ZM57.4082 19.4707L57.8634 18.8941C57.7866 18.8334 57.6604 18.6733 57.6604 18.2012H56.9258H56.1911C56.1911 18.914 56.3865 19.6002 56.953 20.0473L57.4082 19.4707ZM56.9258 18.2012H57.6604C57.6604 17.714 57.7898 17.5646 57.8539 17.5157L57.4082 16.9316L56.9625 16.3476C56.3834 16.7896 56.1911 17.4865 56.1911 18.2012H56.9258ZM57.4082 16.9316L57.8466 17.5212C58.0312 17.3839 58.2732 17.2981 58.6143 17.2981V16.5635V15.8288C58.0074 15.8288 57.4453 15.9885 56.9698 16.3421L57.4082 16.9316ZM75.3848 22.9111L74.8836 23.4484L74.889 23.4533L75.3848 22.9111ZM76.7178 36V36.7347H77.4524V36H76.7178ZM73.7344 36H72.9997V36.7347H73.7344V36ZM73.0615 24.9424L72.4921 25.4067L72.4957 25.411L73.0615 24.9424ZM68.1357 25.374L67.5159 24.9796L67.5131 24.9841L68.1357 25.374ZM67.3486 36V36.7347H68.0833V36H67.3486ZM64.3652 36H63.6306V36.7347H64.3652V36ZM64.3652 21.9463V21.2116H63.6306V21.9463H64.3652ZM66.6885 21.9463L67.406 21.7884L67.2791 21.2116H66.6885V21.9463ZM67.1074 23.8506L66.3899 24.0084L66.5168 24.5853H67.1074V23.8506ZM67.2725 23.8506V24.5853H67.6811L67.8967 24.238L67.2725 23.8506ZM68.4023 22.6445L68.8229 23.2469L68.8251 23.2453L68.4023 22.6445ZM69.9258 21.9209L69.7253 21.2141L69.7225 21.2149L69.9258 21.9209ZM71.6904 21.6797V22.4144C73.1473 22.4144 74.1779 22.7901 74.8837 23.4484L75.3848 22.9111L75.8859 22.3739C74.8312 21.3902 73.3989 20.945 71.6904 20.945V21.6797ZM75.3848 22.9111L74.889 23.4533C75.5633 24.0698 75.9831 25.1347 75.9831 26.834H76.7178H77.4524C77.4524 24.9278 76.9836 23.3775 75.8805 22.3689L75.3848 22.9111ZM76.7178 26.834H75.9831V36H76.7178H77.4524V26.834H76.7178ZM76.7178 36V35.2653H73.7344V36V36.7347H76.7178V36ZM73.7344 36H74.469V27.3926H73.7344H72.9997V36H73.7344ZM73.7344 27.3926H74.469C74.469 26.2194 74.2311 25.2028 73.6274 24.4738L73.0615 24.9424L72.4957 25.411C72.7891 25.7653 72.9997 26.3822 72.9997 27.3926H73.7344ZM73.0615 24.9424L73.6309 24.4781C73.0007 23.7053 72.0632 23.3825 70.9795 23.3825V24.1172V24.8519C71.7747 24.8519 72.2252 25.0792 72.4921 25.4066L73.0615 24.9424ZM70.9795 24.1172V23.3825C69.469 23.3825 68.2314 23.8553 67.5159 24.9796L68.1357 25.374L68.7556 25.7684C69.1065 25.217 69.7647 24.8519 70.9795 24.8519V24.1172ZM68.1357 25.374L67.5131 24.9841C66.8832 25.9899 66.614 27.3647 66.614 29.0176H67.3486H68.0833C68.0833 27.4882 68.3388 26.4339 68.7584 25.764L68.1357 25.374ZM67.3486 29.0176H66.614V36H67.3486H68.0833V29.0176H67.3486ZM67.3486 36V35.2653H64.3652V36V36.7347H67.3486V36ZM64.3652 36H65.0999V21.9463H64.3652H63.6306V36H64.3652ZM64.3652 21.9463V22.681H66.6885V21.9463V21.2116H64.3652V21.9463ZM66.6885 21.9463L65.971 22.1041L66.3899 24.0084L67.1074 23.8506L67.8249 23.6927L67.406 21.7884L66.6885 21.9463ZM67.1074 23.8506V24.5853H67.2725V23.8506V23.1159H67.1074V23.8506ZM67.2725 23.8506L67.8967 24.238C68.1518 23.827 68.4606 23.4998 68.8229 23.2469L68.4023 22.6445L67.9818 22.0421C67.4469 22.4155 67.0025 22.8924 66.6483 23.4631L67.2725 23.8506ZM68.4023 22.6445L68.8251 23.2453C69.2127 22.9726 69.6458 22.766 70.129 22.6269L69.9258 21.9209L69.7225 21.2149C69.0886 21.3974 68.5061 21.6732 67.9795 22.0437L68.4023 22.6445ZM69.9258 21.9209L70.1262 22.6277C70.6259 22.486 71.1465 22.4144 71.6904 22.4144V21.6797V20.945C71.0156 20.945 70.3598 21.0342 69.7253 21.2141L69.9258 21.9209ZM79.8154 36.1396L79.2732 35.6439L79.2697 35.6478L79.8154 36.1396ZM82.1387 34.9082L82.3012 35.6247L84.4584 35.1352L82.437 34.2369L82.1387 34.9082ZM81.1484 34.1211L80.5591 34.5597L80.5648 34.5674L80.5708 34.575L81.1484 34.1211ZM82.5195 30.4902L82.8908 31.1242L84.1513 30.3859L82.8071 29.8142L82.5195 30.4902ZM80.7422 28.9668L80.1175 29.3535L80.123 29.3622L80.7422 28.9668ZM80.7295 23.876L81.3575 24.2573L81.3595 24.254L80.7295 23.876ZM82.6211 22.2383L82.922 22.9085L82.9277 22.9059L82.6211 22.2383ZM86.4551 21.7178L86.3717 22.4477L86.3828 22.449L86.3941 22.4499L86.4551 21.7178ZM87.293 21.8193L87.1722 22.544L87.1855 22.5462L87.199 22.548L87.293 21.8193ZM87.8896 21.9336L87.6705 22.6348L87.7775 22.6683H87.8896V21.9336ZM92.752 21.9336H93.4866V21.1989H92.752V21.9336ZM92.752 23.5967L92.8864 24.3189L93.4866 24.2072V23.5967H92.752ZM90.3652 24.041L90.2308 23.3188L89.1003 23.5292L89.7663 24.4665L90.3652 24.041ZM90.9111 25.1455L90.2127 25.3736L90.2142 25.3778L90.9111 25.1455ZM89.6035 29.9189L90.0729 30.4841L90.0734 30.4837L89.6035 29.9189ZM85.4648 31.1631L85.4355 31.8972L85.4502 31.8978H85.4648V31.1631ZM84.2334 31.0615L84.3264 30.3328L84.0705 30.3001L83.8503 30.4346L84.2334 31.0615ZM83.5352 31.6836L84.1284 32.1171L84.136 32.1064L83.5352 31.6836ZM83.5352 32.9912L83.0453 33.5387L83.0535 33.5461L83.0619 33.5532L83.5352 32.9912ZM84.2461 33.2959L84.0908 34.014L84.0947 34.0148L84.2461 33.2959ZM90.6064 40.9385L90.2044 40.3236L90.2016 40.3254L90.6064 40.9385ZM89.2607 38.9707L88.7353 38.4572L88.7296 38.4632L89.2607 38.9707ZM83.0654 36.1904L82.7925 35.5082L82.7809 35.5131L83.0654 36.1904ZM82.0752 36.9521L81.4783 36.5236L81.4712 36.534L82.0752 36.9521ZM82.583 39.6309L82.1995 40.2575L82.2037 40.26L82.583 39.6309ZM87.5469 28.4971L88.0949 28.9864L88.0992 28.9815L87.5469 28.4971ZM87.5215 24.333L86.9783 24.8277L86.9831 24.8329L87.5215 24.333ZM83.6748 24.3457L83.132 23.8505L83.1273 23.8558L83.6748 24.3457ZM83.6748 28.4971L83.1272 28.987L83.1364 28.997L83.6748 28.4971ZM84.9062 42.2461V41.5114C83.0732 41.5114 81.7815 41.1786 80.9374 40.6088L80.5264 41.2178L80.1153 41.8267C81.3025 42.628 82.9307 42.9808 84.9062 42.9808V42.2461ZM80.5264 41.2178L80.9374 40.6088C80.1262 40.0613 79.7376 39.33 79.7376 38.3359H79.0029H78.2683C78.2683 39.8133 78.8953 41.0032 80.1153 41.8267L80.5264 41.2178ZM79.0029 38.3359H79.7376C79.7376 37.6411 79.9497 37.0879 80.3611 36.6315L79.8154 36.1396L79.2697 35.6478C78.5978 36.3932 78.2683 37.3043 78.2683 38.3359H79.0029ZM79.8154 36.1396L80.3576 36.6354C80.7728 36.1813 81.3984 35.8295 82.3012 35.6247L82.1387 34.9082L81.9761 34.1917C80.8646 34.4439 79.9414 34.9131 79.2732 35.6439L79.8154 36.1396ZM82.1387 34.9082L82.437 34.2369C82.1747 34.1203 81.9378 33.9367 81.7261 33.6672L81.1484 34.1211L80.5708 34.575C80.9176 35.0165 81.3409 35.3576 81.8403 35.5796L82.1387 34.9082ZM81.1484 34.1211L81.7378 33.6825C81.5582 33.4411 81.4769 33.192 81.4769 32.915H80.7422H80.0075C80.0075 33.5183 80.197 34.0732 80.5591 34.5597L81.1484 34.1211ZM80.7422 32.915H81.4769C81.4769 32.5383 81.5794 32.2556 81.7615 32.0267L81.1865 31.5693L80.6116 31.112C80.2012 31.6279 80.0075 32.2423 80.0075 32.915H80.7422ZM81.1865 31.5693L81.7615 32.0267C81.9822 31.7492 82.3449 31.4439 82.8908 31.1242L82.5195 30.4902L82.1482 29.8563C81.5093 30.2305 80.9833 30.6447 80.6116 31.112L81.1865 31.5693ZM82.5195 30.4902L82.8071 29.8142C82.213 29.5615 81.7337 29.1545 81.3614 28.5714L80.7422 28.9668L80.123 29.3622C80.6478 30.184 81.3535 30.7927 82.232 31.1663L82.5195 30.4902ZM80.7422 28.9668L81.3669 28.5801C81.0085 28.0013 80.8167 27.3057 80.8167 26.4658H80.082H79.3474C79.3474 27.5387 79.5956 28.5104 80.1175 29.3535L80.7422 28.9668ZM80.082 26.4658H80.8167C80.8167 25.5549 81.0096 24.8303 81.3575 24.2573L80.7295 23.876L80.1015 23.4947C79.5861 24.3436 79.3474 25.3455 79.3474 26.4658H80.082ZM80.7295 23.876L81.3595 24.254C81.7073 23.6742 82.2175 23.2248 82.922 22.9085L82.6211 22.2383L82.3202 21.5681C81.3658 21.9965 80.6149 22.639 80.0995 23.498L80.7295 23.876ZM82.6211 22.2383L82.9277 22.9059C83.6374 22.58 84.5299 22.4017 85.6299 22.4017V21.667V20.9323C84.377 20.9323 83.2637 21.1348 82.3145 21.5706L82.6211 22.2383ZM85.6299 21.667V22.4017C85.8516 22.4017 86.0985 22.4165 86.3717 22.4477L86.4551 21.7178L86.5385 20.9879C86.2192 20.9514 85.916 20.9323 85.6299 20.9323V21.667ZM86.4551 21.7178L86.3941 22.4499C86.6823 22.4739 86.9414 22.5055 87.1722 22.544L87.293 21.8193L87.4137 21.0947C87.1368 21.0485 86.8372 21.0124 86.5161 20.9856L86.4551 21.7178ZM87.293 21.8193L87.199 22.548C87.4485 22.5802 87.597 22.6118 87.6705 22.6348L87.8896 21.9336L88.1088 21.2324C87.9115 21.1707 87.6621 21.1262 87.387 21.0907L87.293 21.8193ZM87.8896 21.9336V22.6683H92.752V21.9336V21.1989H87.8896V21.9336ZM92.752 21.9336H92.0173V23.5967H92.752H93.4866V21.9336H92.752ZM92.752 23.5967L92.6175 22.8744L90.2308 23.3188L90.3652 24.041L90.4997 24.7633L92.8864 24.3189L92.752 23.5967ZM90.3652 24.041L89.7663 24.4665C89.9476 24.7217 90.0979 25.0219 90.2128 25.3736L90.9111 25.1455L91.6095 24.9175C91.4535 24.4397 91.2399 24.0036 90.9641 23.6155L90.3652 24.041ZM90.9111 25.1455L90.2142 25.3778C90.3217 25.7003 90.3796 26.0652 90.3796 26.4785H91.1143H91.8489C91.8489 25.927 91.7714 25.4032 91.6081 24.9132L90.9111 25.1455ZM91.1143 26.4785H90.3796C90.3796 27.7434 89.9531 28.6725 89.1337 29.3542L89.6035 29.9189L90.0734 30.4837C91.2683 29.4896 91.8489 28.1251 91.8489 26.4785H91.1143ZM89.6035 29.9189L89.1341 29.3538C88.3077 30.0401 87.1148 30.4284 85.4648 30.4284V31.1631V31.8978C87.3357 31.8978 88.9019 31.4566 90.0729 30.4841L89.6035 29.9189ZM85.4648 31.1631L85.4942 30.429C85.0911 30.4129 84.7019 30.3807 84.3264 30.3328L84.2334 31.0615L84.1404 31.7903C84.5604 31.8439 84.9922 31.8794 85.4355 31.8972L85.4648 31.1631ZM84.2334 31.0615L83.8503 30.4346C83.4828 30.6593 83.1667 30.9306 82.9343 31.2608L83.5352 31.6836L84.136 32.1064C84.2253 31.9795 84.3747 31.8362 84.6165 31.6884L84.2334 31.0615ZM83.5352 31.6836L82.942 31.2501C82.6868 31.5993 82.5593 32.0016 82.5593 32.4326H83.2939H84.0286C84.0286 32.305 84.0619 32.208 84.1283 32.1171L83.5352 31.6836ZM83.2939 32.4326H82.5593C82.5593 32.8562 82.7186 33.2464 83.0453 33.5387L83.5352 32.9912L84.025 32.4437C84.021 32.4401 84.021 32.4394 84.0228 32.4419C84.0247 32.4445 84.0269 32.4483 84.0287 32.4524C84.0305 32.4565 84.0306 32.4582 84.0303 32.4562C84.0298 32.4541 84.0286 32.4466 84.0286 32.4326H83.2939ZM83.5352 32.9912L83.0619 33.5532C83.35 33.7958 83.7166 33.9331 84.0908 34.014L84.2461 33.2959L84.4014 32.5778C84.1493 32.5233 84.0419 32.4575 84.0084 32.4293L83.5352 32.9912ZM84.2461 33.2959L84.0947 34.0148C84.4812 34.0962 84.9243 34.1321 85.4141 34.1321V33.3975V32.6628C84.9898 32.6628 84.6542 32.6311 84.3974 32.577L84.2461 33.2959ZM85.4141 33.3975V34.1321H87.8389V33.3975V32.6628H85.4141V33.3975ZM87.8389 33.3975V34.1321C89.2892 34.1321 90.276 34.4407 90.9085 34.9481L91.3682 34.375L91.8278 33.8019C90.8354 33.0059 89.4692 32.6628 87.8389 32.6628V33.3975ZM91.3682 34.375L90.9085 34.9481C91.5103 35.4308 91.8522 36.1539 91.8522 37.2441H92.5869H93.3216C93.3216 35.8122 92.8511 34.6226 91.8278 33.8019L91.3682 34.375ZM92.5869 37.2441H91.8522C91.8522 38.6 91.3137 39.5983 90.2044 40.3236L90.6064 40.9385L91.0085 41.5534C92.5398 40.5521 93.3216 39.0875 93.3216 37.2441H92.5869ZM90.6064 40.9385L90.2016 40.3254C89.0517 41.0846 87.3174 41.5114 84.9062 41.5114V42.2461V42.9808C87.4548 42.9808 89.5205 42.5358 91.0112 41.5516L90.6064 40.9385ZM85.0205 40.1514V40.886C86.1043 40.886 87.053 40.7809 87.8503 40.5531L87.6484 39.8467L87.4466 39.1403C86.822 39.3188 86.0187 39.4167 85.0205 39.4167V40.1514ZM87.6484 39.8467L87.8503 40.5531C88.6386 40.3279 89.3086 39.9841 89.7919 39.4783L89.2607 38.9707L88.7296 38.4632C88.485 38.7191 88.0802 38.9593 87.4466 39.1403L87.6484 39.8467ZM89.2607 38.9707L89.7862 39.4842C90.283 38.9758 90.5413 38.3477 90.5413 37.6377H89.8066H89.072C89.072 37.9602 88.9664 38.2208 88.7353 38.4572L89.2607 38.9707ZM89.8066 37.6377H90.5413C90.5413 37.0632 90.3966 36.5077 90.0016 36.0834L89.4639 36.584L88.9262 37.0846C88.9882 37.1512 89.072 37.2981 89.072 37.6377H89.8066ZM89.4639 36.584L90.0016 36.0834C89.6351 35.6897 89.1322 35.4683 88.5822 35.3563L88.4355 36.0762L88.2889 36.7961C88.6529 36.8702 88.8356 36.9874 88.9262 37.0846L89.4639 36.584ZM88.4355 36.0762L88.5822 35.3563C88.0606 35.25 87.4407 35.2019 86.7344 35.2019V35.9365V36.6712C87.3822 36.6712 87.8964 36.7161 88.2889 36.7961L88.4355 36.0762ZM86.7344 35.9365V35.2019H84.5254V35.9365V36.6712H86.7344V35.9365ZM84.5254 35.9365V35.2019C83.9007 35.2019 83.3185 35.2979 82.7926 35.5083L83.0654 36.1904L83.3383 36.8726C83.6587 36.7444 84.0499 36.6712 84.5254 36.6712V35.9365ZM83.0654 36.1904L82.7809 35.5131C82.2493 35.7364 81.8044 36.0696 81.4784 36.5237L82.0752 36.9521L82.672 37.3806C82.82 37.1745 83.0352 37 83.3499 36.8678L83.0654 36.1904ZM82.0752 36.9521L81.4712 36.534C81.1446 37.0057 80.9978 37.5551 80.9978 38.1455H81.7324H82.4671C82.4671 37.8049 82.5488 37.5588 82.6792 37.3703L82.0752 36.9521ZM81.7324 38.1455H80.9978C80.9978 39.0548 81.4232 39.7825 82.1995 40.2575L82.583 39.6309L82.9665 39.0042C82.6087 38.7852 82.4671 38.5227 82.4671 38.1455H81.7324ZM82.583 39.6309L82.2037 40.26C82.9409 40.7045 83.906 40.886 85.0205 40.886V40.1514V39.4167C84.0361 39.4167 83.3762 39.2512 82.9624 39.0017L82.583 39.6309ZM85.6045 29.208V29.9427C86.6045 29.9427 87.4862 29.6681 88.0949 28.9864L87.5469 28.4971L86.9989 28.0078C86.7612 28.2739 86.348 28.4733 85.6045 28.4733V29.208ZM87.5469 28.4971L88.0992 28.9815C88.6763 28.3236 88.9163 27.4515 88.9163 26.4658H88.1816H87.447C87.447 27.2236 87.2638 27.7057 86.9946 28.0126L87.5469 28.4971ZM88.1816 26.4658H88.9163C88.9163 25.4176 88.6741 24.4946 88.0598 23.8331L87.5215 24.333L86.9831 24.8329C87.2491 25.1193 87.447 25.6182 87.447 26.4658H88.1816ZM87.5215 24.333L88.0647 23.8383C87.4516 23.1652 86.5811 22.8874 85.5918 22.8874V23.6221V24.3567C86.3122 24.3567 86.7281 24.5529 86.9783 24.8277L87.5215 24.333ZM85.5918 23.6221V22.8874C84.6095 22.8874 83.7484 23.175 83.1321 23.8506L83.6748 24.3457L84.2176 24.8408C84.4815 24.5516 84.8983 24.3567 85.5918 24.3567V23.6221ZM83.6748 24.3457L83.1273 23.8558C82.5296 24.5238 82.2927 25.4449 82.2927 26.4912H83.0273H83.762C83.762 25.6417 83.9567 25.1325 84.2223 24.8356L83.6748 24.3457ZM83.0273 26.4912H82.2927C82.2927 27.4677 82.5408 28.3315 83.1273 28.9869L83.6748 28.4971L84.2223 28.0072C83.9455 27.6978 83.762 27.2243 83.762 26.4912H83.0273ZM83.6748 28.4971L83.1364 28.997C83.755 29.6632 84.6202 29.9427 85.6045 29.9427V29.208V28.4733C84.8961 28.4733 84.4748 28.2789 84.2132 27.9972L83.6748 28.4971Z" fill="#4E1C9C" mask="url(#path-2-outside-1_47_817)"/>
<path d="M17 79.05H32V64.05H17V79.05Z" fill="black"/>
<path d="M47.0566 64.9824C46.2689 64.9824 45.5592 65.1191 44.9277 65.3926C44.3027 65.6595 43.7689 66.0501 43.3262 66.5645C42.89 67.0723 42.5547 67.6875 42.3203 68.4102C42.0859 69.1328 41.9688 69.9466 41.9688 70.8516C41.9688 72.0495 42.1543 73.0911 42.5254 73.9766C42.903 74.8555 43.4629 75.5358 44.2051 76.0176C44.9538 76.4993 45.888 76.7402 47.0078 76.7402C47.6458 76.7402 48.2448 76.6882 48.8047 76.584C49.3711 76.4733 49.9212 76.3366 50.4551 76.1738V77.6191C49.9342 77.8145 49.3874 77.9577 48.8145 78.0488C48.2415 78.1465 47.5612 78.1953 46.7734 78.1953C45.3216 78.1953 44.1074 77.8958 43.1309 77.2969C42.1608 76.6914 41.4316 75.8385 40.9434 74.7383C40.4616 73.638 40.2207 72.3392 40.2207 70.8418C40.2207 69.7611 40.3704 68.7747 40.6699 67.8828C40.9759 66.9844 41.4186 66.2096 41.998 65.5586C42.584 64.9076 43.3001 64.4062 44.1465 64.0547C44.9993 63.6966 45.9759 63.5176 47.0762 63.5176C47.7988 63.5176 48.4954 63.5892 49.166 63.7324C49.8366 63.8757 50.4421 64.0807 50.9824 64.3477L50.3184 65.7539C49.8626 65.5456 49.3613 65.3665 48.8145 65.2168C48.2741 65.0605 47.6882 64.9824 47.0566 64.9824ZM54.9375 78H53.3066V62.8047H54.9375V78ZM62.3691 67.1211C63.6452 67.1211 64.5924 67.4076 65.2109 67.9805C65.8294 68.5534 66.1387 69.4681 66.1387 70.7246V78H64.957L64.6445 76.418H64.5664C64.2669 76.8086 63.9544 77.1374 63.6289 77.4043C63.3034 77.6647 62.9258 77.8633 62.4961 78C62.0729 78.1302 61.5521 78.1953 60.9336 78.1953C60.2826 78.1953 59.7031 78.0814 59.1953 77.8535C58.694 77.6257 58.2969 77.2806 58.0039 76.8184C57.7174 76.3561 57.5742 75.7702 57.5742 75.0605C57.5742 73.9928 57.9974 73.1725 58.8438 72.5996C59.6901 72.0267 60.9792 71.7142 62.7109 71.6621L64.5566 71.584V70.9297C64.5566 70.0052 64.3581 69.3574 63.9609 68.9863C63.5638 68.6152 63.0039 68.4297 62.2812 68.4297C61.7214 68.4297 61.1875 68.5111 60.6797 68.6738C60.1719 68.8366 59.6901 69.0286 59.2344 69.25L58.7363 68.0195C59.2181 67.7721 59.7715 67.5605 60.3965 67.3848C61.0215 67.209 61.679 67.1211 62.3691 67.1211ZM64.5371 72.7266L62.9062 72.7949C61.5716 72.847 60.6309 73.0651 60.084 73.4492C59.5371 73.8333 59.2637 74.377 59.2637 75.0801C59.2637 75.6921 59.4492 76.1445 59.8203 76.4375C60.1914 76.7305 60.6829 76.877 61.2949 76.877C62.2454 76.877 63.0234 76.6133 63.6289 76.0859C64.2344 75.5586 64.5371 74.7676 64.5371 73.7129V72.7266ZM76.4023 75.0703C76.4023 75.7539 76.2298 76.3301 75.8848 76.7988C75.5462 77.2611 75.0579 77.6094 74.4199 77.8438C73.7884 78.0781 73.0332 78.1953 72.1543 78.1953C71.4056 78.1953 70.7578 78.1367 70.2109 78.0195C69.6641 77.9023 69.1855 77.7363 68.7754 77.5215V76.0273C69.2116 76.2422 69.7324 76.4375 70.3379 76.6133C70.9434 76.7891 71.5618 76.877 72.1934 76.877C73.1178 76.877 73.7884 76.7272 74.2051 76.4277C74.6217 76.1283 74.8301 75.7214 74.8301 75.207C74.8301 74.9141 74.7454 74.6569 74.5762 74.4355C74.4134 74.2077 74.1367 73.9896 73.7461 73.7812C73.3555 73.5664 72.8151 73.332 72.125 73.0781C71.4414 72.8177 70.849 72.5605 70.3477 72.3066C69.8529 72.0462 69.4688 71.7305 69.1953 71.3594C68.9284 70.9883 68.7949 70.5065 68.7949 69.9141C68.7949 69.0091 69.1595 68.3158 69.8887 67.834C70.6243 67.3457 71.5879 67.1016 72.7793 67.1016C73.4238 67.1016 74.026 67.1667 74.5859 67.2969C75.1523 67.4206 75.6797 67.5898 76.168 67.8047L75.6211 69.1035C75.1784 68.9147 74.7064 68.7552 74.2051 68.625C73.7038 68.4948 73.1927 68.4297 72.6719 68.4297C71.9232 68.4297 71.347 68.5534 70.9434 68.8008C70.5462 69.0482 70.3477 69.3867 70.3477 69.8164C70.3477 70.1484 70.4388 70.4219 70.6211 70.6367C70.8099 70.8516 71.1094 71.0534 71.5195 71.2422C71.9297 71.431 72.4701 71.6523 73.1406 71.9062C73.8112 72.1536 74.3906 72.4108 74.8789 72.6777C75.3672 72.9382 75.7415 73.2572 76.002 73.6348C76.2689 74.0059 76.4023 74.4844 76.4023 75.0703ZM85.9336 75.0703C85.9336 75.7539 85.7611 76.3301 85.416 76.7988C85.0775 77.2611 84.5892 77.6094 83.9512 77.8438C83.3197 78.0781 82.5645 78.1953 81.6855 78.1953C80.9368 78.1953 80.2891 78.1367 79.7422 78.0195C79.1953 77.9023 78.7168 77.7363 78.3066 77.5215V76.0273C78.7428 76.2422 79.2637 76.4375 79.8691 76.6133C80.4746 76.7891 81.0931 76.877 81.7246 76.877C82.6491 76.877 83.3197 76.7272 83.7363 76.4277C84.153 76.1283 84.3613 75.7214 84.3613 75.207C84.3613 74.9141 84.2767 74.6569 84.1074 74.4355C83.9447 74.2077 83.668 73.9896 83.2773 73.7812C82.8867 73.5664 82.3464 73.332 81.6562 73.0781C80.9727 72.8177 80.3802 72.5605 79.8789 72.3066C79.3841 72.0462 79 71.7305 78.7266 71.3594C78.4596 70.9883 78.3262 70.5065 78.3262 69.9141C78.3262 69.0091 78.6908 68.3158 79.4199 67.834C80.1556 67.3457 81.1191 67.1016 82.3105 67.1016C82.9551 67.1016 83.5573 67.1667 84.1172 67.2969C84.6836 67.4206 85.2109 67.5898 85.6992 67.8047L85.1523 69.1035C84.7096 68.9147 84.2376 68.7552 83.7363 68.625C83.235 68.4948 82.724 68.4297 82.2031 68.4297C81.4544 68.4297 80.8783 68.5534 80.4746 68.8008C80.0775 69.0482 79.8789 69.3867 79.8789 69.8164C79.8789 70.1484 79.9701 70.4219 80.1523 70.6367C80.3411 70.8516 80.6406 71.0534 81.0508 71.2422C81.4609 71.431 82.0013 71.6523 82.6719 71.9062C83.3424 72.1536 83.9219 72.4108 84.4102 72.6777C84.8984 72.9382 85.2728 73.2572 85.5332 73.6348C85.8001 74.0059 85.9336 74.4844 85.9336 75.0703ZM98.5996 67.1016C98.8145 67.1016 99.0391 67.1146 99.2734 67.1406C99.5078 67.1602 99.7161 67.1895 99.8984 67.2285L99.6934 68.7324C99.5176 68.6868 99.3223 68.651 99.1074 68.625C98.8926 68.599 98.6908 68.5859 98.502 68.5859C98.0723 68.5859 97.6654 68.6738 97.2812 68.8496C96.9036 69.0189 96.5716 69.2663 96.2852 69.5918C95.9987 69.9108 95.7741 70.2982 95.6113 70.7539C95.4486 71.2031 95.3672 71.7044 95.3672 72.2578V78H93.7363V67.2969H95.084L95.2598 69.2695H95.3281C95.5495 68.8724 95.8164 68.5111 96.1289 68.1855C96.4414 67.8535 96.8027 67.5898 97.2129 67.3945C97.6296 67.1992 98.0918 67.1016 98.5996 67.1016ZM105.924 67.1211C107.2 67.1211 108.147 67.4076 108.766 67.9805C109.384 68.5534 109.693 69.4681 109.693 70.7246V78H108.512L108.199 76.418H108.121C107.822 76.8086 107.509 77.1374 107.184 77.4043C106.858 77.6647 106.48 77.8633 106.051 78C105.628 78.1302 105.107 78.1953 104.488 78.1953C103.837 78.1953 103.258 78.0814 102.75 77.8535C102.249 77.6257 101.852 77.2806 101.559 76.8184C101.272 76.3561 101.129 75.7702 101.129 75.0605C101.129 73.9928 101.552 73.1725 102.398 72.5996C103.245 72.0267 104.534 71.7142 106.266 71.6621L108.111 71.584V70.9297C108.111 70.0052 107.913 69.3574 107.516 68.9863C107.118 68.6152 106.559 68.4297 105.836 68.4297C105.276 68.4297 104.742 68.5111 104.234 68.6738C103.727 68.8366 103.245 69.0286 102.789 69.25L102.291 68.0195C102.773 67.7721 103.326 67.5605 103.951 67.3848C104.576 67.209 105.234 67.1211 105.924 67.1211ZM108.092 72.7266L106.461 72.7949C105.126 72.847 104.186 73.0651 103.639 73.4492C103.092 73.8333 102.818 74.377 102.818 75.0801C102.818 75.6921 103.004 76.1445 103.375 76.4375C103.746 76.7305 104.238 76.877 104.85 76.877C105.8 76.877 106.578 76.6133 107.184 76.0859C107.789 75.5586 108.092 74.7676 108.092 73.7129V72.7266ZM116.49 76.8672C116.757 76.8672 117.031 76.8444 117.311 76.7988C117.59 76.7533 117.818 76.6979 117.994 76.6328V77.8926C117.805 77.9772 117.542 78.0488 117.203 78.1074C116.871 78.166 116.546 78.1953 116.227 78.1953C115.66 78.1953 115.146 78.0977 114.684 77.9023C114.221 77.7005 113.85 77.362 113.57 76.8867C113.297 76.4115 113.16 75.7539 113.16 74.9141V68.5664H111.637V67.7754L113.17 67.1406L113.814 64.8164H114.791V67.2969H117.926V68.5664H114.791V74.8652C114.791 75.5358 114.944 76.0371 115.25 76.3691C115.562 76.7012 115.976 76.8672 116.49 76.8672ZM121.783 67.2969V78H120.162V67.2969H121.783ZM120.992 63.293C121.259 63.293 121.487 63.3809 121.676 63.5566C121.871 63.7259 121.969 63.9928 121.969 64.3574C121.969 64.7155 121.871 64.9824 121.676 65.1582C121.487 65.334 121.259 65.4219 120.992 65.4219C120.712 65.4219 120.478 65.334 120.289 65.1582C120.107 64.9824 120.016 64.7155 120.016 64.3574C120.016 63.9928 120.107 63.7259 120.289 63.5566C120.478 63.3809 120.712 63.293 120.992 63.293ZM130.289 67.1016C131.559 67.1016 132.519 67.4141 133.17 68.0391C133.821 68.6576 134.146 69.6536 134.146 71.0273V78H132.545V71.1348C132.545 70.2428 132.34 69.5755 131.93 69.1328C131.526 68.6901 130.904 68.4688 130.064 68.4688C128.88 68.4688 128.046 68.804 127.564 69.4746C127.083 70.1452 126.842 71.1185 126.842 72.3945V78H125.221V67.2969H126.529L126.773 68.8398H126.861C127.089 68.4622 127.379 68.1465 127.73 67.8926C128.082 67.6322 128.476 67.4368 128.912 67.3066C129.348 67.1699 129.807 67.1016 130.289 67.1016ZM140.475 82.8047C139.068 82.8047 137.984 82.541 137.223 82.0137C136.461 81.4928 136.08 80.7604 136.08 79.8164C136.08 79.1458 136.292 78.5729 136.715 78.0977C137.145 77.6224 137.737 77.3066 138.492 77.1504C138.212 77.0202 137.971 76.8249 137.77 76.5645C137.574 76.304 137.477 76.0046 137.477 75.666C137.477 75.2754 137.584 74.9336 137.799 74.6406C138.02 74.3411 138.355 74.0547 138.805 73.7812C138.245 73.5534 137.789 73.1693 137.438 72.6289C137.092 72.082 136.92 71.4473 136.92 70.7246C136.92 69.9564 137.079 69.3021 137.398 68.7617C137.717 68.2148 138.18 67.7982 138.785 67.5117C139.391 67.2253 140.123 67.082 140.982 67.082C141.171 67.082 141.36 67.0918 141.549 67.1113C141.744 67.1243 141.93 67.1471 142.105 67.1797C142.281 67.2057 142.434 67.2383 142.564 67.2773H146.236V68.3223L144.264 68.5664C144.459 68.8203 144.622 69.1263 144.752 69.4844C144.882 69.8424 144.947 70.2396 144.947 70.6758C144.947 71.7435 144.586 72.5931 143.863 73.2246C143.141 73.8496 142.148 74.1621 140.885 74.1621C140.585 74.1621 140.279 74.1361 139.967 74.084C139.648 74.2598 139.404 74.4551 139.234 74.6699C139.072 74.8848 138.99 75.1322 138.99 75.4121C138.99 75.6204 139.052 75.7865 139.176 75.9102C139.306 76.0339 139.492 76.125 139.732 76.1836C139.973 76.2357 140.263 76.2617 140.602 76.2617H142.486C143.652 76.2617 144.544 76.5059 145.162 76.9941C145.787 77.4824 146.1 78.1953 146.1 79.1328C146.1 80.3177 145.618 81.2259 144.654 81.8574C143.691 82.4889 142.298 82.8047 140.475 82.8047ZM140.523 81.5352C141.409 81.5352 142.141 81.444 142.721 81.2617C143.307 81.0859 143.743 80.8288 144.029 80.4902C144.322 80.1582 144.469 79.7611 144.469 79.2988C144.469 78.8691 144.371 78.5436 144.176 78.3223C143.98 78.1074 143.694 77.9642 143.316 77.8926C142.939 77.8145 142.477 77.7754 141.93 77.7754H140.074C139.592 77.7754 139.173 77.8503 138.814 78C138.456 78.1497 138.18 78.3711 137.984 78.6641C137.796 78.957 137.701 79.3216 137.701 79.7578C137.701 80.3372 137.945 80.7767 138.434 81.0762C138.922 81.3822 139.618 81.5352 140.523 81.5352ZM140.943 72.9805C141.718 72.9805 142.301 72.7852 142.691 72.3945C143.082 72.0039 143.277 71.4342 143.277 70.6855C143.277 69.8848 143.079 69.2858 142.682 68.8887C142.285 68.485 141.699 68.2832 140.924 68.2832C140.182 68.2832 139.609 68.4915 139.205 68.9082C138.808 69.3184 138.609 69.9206 138.609 70.7148C138.609 71.444 138.811 72.0039 139.215 72.3945C139.618 72.7852 140.195 72.9805 140.943 72.9805Z" fill="#4A4A4A"/>
</svg>
